<mxfile host="app.diagrams.net" modified="2023-10-10T10:11:26.341Z" agent="Mozilla/5.0 (X11; Linux x86_64) AppleWebKit/537.36 (KHTML, like Gecko) Chrome/117.0.0.0 Safari/537.36 Edg/117.0.2045.55" etag="lzHzp8XZPV7UF6l9bfwj" version="22.0.4" type="github">
  <diagram name="Page-1" id="5d7acffa-a066-3a61-03fe-96351882024d">
    <mxGraphModel dx="2192" dy="1312" grid="1" gridSize="10" guides="1" tooltips="1" connect="1" arrows="1" fold="1" page="1" pageScale="1" pageWidth="1100" pageHeight="850" background="#ffffff" math="0" shadow="0">
      <root>
        <mxCell id="0" />
        <mxCell id="1" parent="0" />
        <mxCell id="1xyslzgkCpMe2rgCqbMj-58" value="" style="shape=ellipse;html=1;dashed=0;whiteSpace=wrap;perimeter=ellipsePerimeter;" parent="1" vertex="1">
          <mxGeometry x="-870" y="260" width="95" height="95" as="geometry" />
        </mxCell>
        <mxCell id="1xyslzgkCpMe2rgCqbMj-146" style="edgeStyle=orthogonalEdgeStyle;rounded=0;orthogonalLoop=1;jettySize=auto;html=1;exitX=0.5;exitY=1;exitDx=0;exitDy=0;" parent="1" source="1xyslzgkCpMe2rgCqbMj-231" target="1xyslzgkCpMe2rgCqbMj-67" edge="1">
          <mxGeometry relative="1" as="geometry" />
        </mxCell>
        <mxCell id="1xyslzgkCpMe2rgCqbMj-57" value="" style="shape=ellipse;html=1;dashed=0;whiteSpace=wrap;perimeter=ellipsePerimeter;" parent="1" vertex="1">
          <mxGeometry x="-660" y="310" width="95" height="95" as="geometry" />
        </mxCell>
        <mxCell id="1xyslzgkCpMe2rgCqbMj-163" style="edgeStyle=orthogonalEdgeStyle;rounded=0;orthogonalLoop=1;jettySize=auto;html=1;exitX=1;exitY=0.5;exitDx=0;exitDy=0;entryX=0;entryY=0.5;entryDx=0;entryDy=0;" parent="1" source="1xyslzgkCpMe2rgCqbMj-244" target="1xyslzgkCpMe2rgCqbMj-69" edge="1">
          <mxGeometry relative="1" as="geometry" />
        </mxCell>
        <mxCell id="1xyslzgkCpMe2rgCqbMj-56" value="" style="shape=ellipse;html=1;dashed=0;whiteSpace=wrap;perimeter=ellipsePerimeter;" parent="1" vertex="1">
          <mxGeometry x="-1070" y="470" width="95" height="95" as="geometry" />
        </mxCell>
        <mxCell id="1xyslzgkCpMe2rgCqbMj-55" value="" style="shape=ellipse;html=1;dashed=0;whiteSpace=wrap;perimeter=ellipsePerimeter;" parent="1" vertex="1">
          <mxGeometry x="-930" y="730" width="95" height="95" as="geometry" />
        </mxCell>
        <mxCell id="1xyslzgkCpMe2rgCqbMj-226" style="edgeStyle=orthogonalEdgeStyle;rounded=0;orthogonalLoop=1;jettySize=auto;html=1;exitX=1;exitY=0.5;exitDx=0;exitDy=0;" parent="1" source="1xyslzgkCpMe2rgCqbMj-54" target="1xyslzgkCpMe2rgCqbMj-223" edge="1">
          <mxGeometry relative="1" as="geometry" />
        </mxCell>
        <mxCell id="1xyslzgkCpMe2rgCqbMj-54" value="" style="shape=ellipse;html=1;dashed=0;whiteSpace=wrap;perimeter=ellipsePerimeter;" parent="1" vertex="1">
          <mxGeometry x="-360" y="-285" width="95" height="95" as="geometry" />
        </mxCell>
        <mxCell id="1xyslzgkCpMe2rgCqbMj-141" style="edgeStyle=orthogonalEdgeStyle;rounded=0;orthogonalLoop=1;jettySize=auto;html=1;exitX=1;exitY=0.5;exitDx=0;exitDy=0;entryX=0;entryY=0.5;entryDx=0;entryDy=0;" parent="1" source="1xyslzgkCpMe2rgCqbMj-229" target="1xyslzgkCpMe2rgCqbMj-66" edge="1">
          <mxGeometry relative="1" as="geometry" />
        </mxCell>
        <mxCell id="1xyslzgkCpMe2rgCqbMj-53" value="" style="shape=ellipse;html=1;dashed=0;whiteSpace=wrap;perimeter=ellipsePerimeter;" parent="1" vertex="1">
          <mxGeometry x="-210" y="30" width="95" height="95" as="geometry" />
        </mxCell>
        <mxCell id="1xyslzgkCpMe2rgCqbMj-157" style="edgeStyle=orthogonalEdgeStyle;rounded=0;orthogonalLoop=1;jettySize=auto;html=1;exitX=0;exitY=0.5;exitDx=0;exitDy=0;entryX=1;entryY=0.75;entryDx=0;entryDy=0;" parent="1" source="1xyslzgkCpMe2rgCqbMj-52" target="1xyslzgkCpMe2rgCqbMj-9" edge="1">
          <mxGeometry relative="1" as="geometry" />
        </mxCell>
        <mxCell id="1xyslzgkCpMe2rgCqbMj-251" style="edgeStyle=orthogonalEdgeStyle;rounded=0;orthogonalLoop=1;jettySize=auto;html=1;exitX=1;exitY=0.5;exitDx=0;exitDy=0;" parent="1" source="1xyslzgkCpMe2rgCqbMj-52" target="1xyslzgkCpMe2rgCqbMj-248" edge="1">
          <mxGeometry relative="1" as="geometry" />
        </mxCell>
        <mxCell id="1xyslzgkCpMe2rgCqbMj-52" value="" style="shape=ellipse;html=1;dashed=0;whiteSpace=wrap;perimeter=ellipsePerimeter;" parent="1" vertex="1">
          <mxGeometry x="-360" y="-80" width="95" height="95" as="geometry" />
        </mxCell>
        <mxCell id="1xyslzgkCpMe2rgCqbMj-195" style="edgeStyle=orthogonalEdgeStyle;rounded=0;orthogonalLoop=1;jettySize=auto;html=1;exitX=0.5;exitY=0;exitDx=0;exitDy=0;entryX=1;entryY=0.5;entryDx=0;entryDy=0;" parent="1" source="1xyslzgkCpMe2rgCqbMj-196" target="1xyslzgkCpMe2rgCqbMj-57" edge="1">
          <mxGeometry relative="1" as="geometry" />
        </mxCell>
        <mxCell id="1xyslzgkCpMe2rgCqbMj-8" value="&lt;span style=&quot;color: rgb(0, 0, 0); font-family: Helvetica; font-size: 12px; font-style: normal; font-variant-ligatures: normal; font-variant-caps: normal; font-weight: 400; letter-spacing: normal; orphans: 2; text-align: center; text-indent: 0px; text-transform: none; widows: 2; word-spacing: 0px; -webkit-text-stroke-width: 0px; background-color: rgb(251, 251, 251); text-decoration-thickness: initial; text-decoration-style: initial; text-decoration-color: initial; float: none; display: inline !important;&quot;&gt;Payment Gateway&lt;/span&gt;" style="rounded=1;whiteSpace=wrap;html=1;" parent="1" vertex="1">
          <mxGeometry x="-390" y="450" width="120" height="60" as="geometry" />
        </mxCell>
        <mxCell id="1xyslzgkCpMe2rgCqbMj-152" style="edgeStyle=orthogonalEdgeStyle;rounded=0;orthogonalLoop=1;jettySize=auto;html=1;exitX=0.75;exitY=1;exitDx=0;exitDy=0;entryX=0;entryY=0.5;entryDx=0;entryDy=0;" parent="1" source="1xyslzgkCpMe2rgCqbMj-176" target="1xyslzgkCpMe2rgCqbMj-53" edge="1">
          <mxGeometry relative="1" as="geometry" />
        </mxCell>
        <mxCell id="1xyslzgkCpMe2rgCqbMj-164" style="edgeStyle=orthogonalEdgeStyle;rounded=0;orthogonalLoop=1;jettySize=auto;html=1;exitX=0.25;exitY=1;exitDx=0;exitDy=0;" parent="1" source="1xyslzgkCpMe2rgCqbMj-187" target="1xyslzgkCpMe2rgCqbMj-104" edge="1">
          <mxGeometry relative="1" as="geometry">
            <Array as="points" />
          </mxGeometry>
        </mxCell>
        <mxCell id="1xyslzgkCpMe2rgCqbMj-9" value="Customers (users)" style="rounded=1;whiteSpace=wrap;html=1;" parent="1" vertex="1">
          <mxGeometry x="-760" y="-250" width="120" height="60" as="geometry" />
        </mxCell>
        <mxCell id="1xyslzgkCpMe2rgCqbMj-161" style="edgeStyle=orthogonalEdgeStyle;rounded=0;orthogonalLoop=1;jettySize=auto;html=1;exitX=1;exitY=0.5;exitDx=0;exitDy=0;entryX=0;entryY=0.5;entryDx=0;entryDy=0;" parent="1" source="1xyslzgkCpMe2rgCqbMj-189" target="1xyslzgkCpMe2rgCqbMj-58" edge="1">
          <mxGeometry relative="1" as="geometry" />
        </mxCell>
        <mxCell id="1xyslzgkCpMe2rgCqbMj-162" style="edgeStyle=orthogonalEdgeStyle;rounded=0;orthogonalLoop=1;jettySize=auto;html=1;exitX=0.5;exitY=1;exitDx=0;exitDy=0;" parent="1" source="1xyslzgkCpMe2rgCqbMj-191" target="1xyslzgkCpMe2rgCqbMj-56" edge="1">
          <mxGeometry relative="1" as="geometry" />
        </mxCell>
        <mxCell id="1xyslzgkCpMe2rgCqbMj-11" value="Product Suppliers" style="rounded=1;whiteSpace=wrap;html=1;" parent="1" vertex="1">
          <mxGeometry x="-1060" y="315" width="120" height="60" as="geometry" />
        </mxCell>
        <mxCell id="1xyslzgkCpMe2rgCqbMj-12" value="Shipping Services" style="rounded=1;whiteSpace=wrap;html=1;" parent="1" vertex="1">
          <mxGeometry x="-762.5" y="950" width="120" height="60" as="geometry" />
        </mxCell>
        <mxCell id="1xyslzgkCpMe2rgCqbMj-13" value="Customer Registration" style="text;html=1;strokeColor=none;fillColor=none;align=center;verticalAlign=middle;whiteSpace=wrap;rounded=0;" parent="1" vertex="1">
          <mxGeometry x="-342.5" y="-252.5" width="60" height="30" as="geometry" />
        </mxCell>
        <mxCell id="1xyslzgkCpMe2rgCqbMj-14" value="Product Search and Selection" style="text;html=1;strokeColor=none;fillColor=none;align=center;verticalAlign=middle;whiteSpace=wrap;rounded=0;" parent="1" vertex="1">
          <mxGeometry x="-852.5" y="292.5" width="60" height="30" as="geometry" />
        </mxCell>
        <mxCell id="1xyslzgkCpMe2rgCqbMj-15" value="Shopping Cart Management" style="text;html=1;strokeColor=none;fillColor=none;align=center;verticalAlign=middle;whiteSpace=wrap;rounded=0;" parent="1" vertex="1">
          <mxGeometry x="-192.5" y="60" width="60" height="30" as="geometry" />
        </mxCell>
        <mxCell id="1xyslzgkCpMe2rgCqbMj-16" value="Checkout and Payment" style="text;html=1;strokeColor=none;fillColor=none;align=center;verticalAlign=middle;whiteSpace=wrap;rounded=0;" parent="1" vertex="1">
          <mxGeometry x="-642.5" y="345" width="60" height="30" as="geometry" />
        </mxCell>
        <mxCell id="1xyslzgkCpMe2rgCqbMj-17" value="Order Processing" style="text;html=1;strokeColor=none;fillColor=none;align=center;verticalAlign=middle;whiteSpace=wrap;rounded=0;" parent="1" vertex="1">
          <mxGeometry x="-910" y="762.5" width="60" height="30" as="geometry" />
        </mxCell>
        <mxCell id="1xyslzgkCpMe2rgCqbMj-19" value="Inventory Management" style="text;html=1;strokeColor=none;fillColor=none;align=center;verticalAlign=middle;whiteSpace=wrap;rounded=0;" parent="1" vertex="1">
          <mxGeometry x="-1052.5" y="497.5" width="60" height="30" as="geometry" />
        </mxCell>
        <mxCell id="1xyslzgkCpMe2rgCqbMj-20" value="User Account Management" style="text;html=1;strokeColor=none;fillColor=none;align=center;verticalAlign=middle;whiteSpace=wrap;rounded=0;" parent="1" vertex="1">
          <mxGeometry x="-342.5" y="-55" width="60" height="30" as="geometry" />
        </mxCell>
        <mxCell id="1xyslzgkCpMe2rgCqbMj-62" value="Customer Database" style="html=1;dashed=0;whiteSpace=wrap;shape=partialRectangle;right=0;" parent="1" vertex="1">
          <mxGeometry x="-70" y="-130" width="100" height="30" as="geometry" />
        </mxCell>
        <mxCell id="1xyslzgkCpMe2rgCqbMj-66" value="Shopping Cart (Temporary)" style="html=1;dashed=0;whiteSpace=wrap;shape=partialRectangle;right=0;" parent="1" vertex="1">
          <mxGeometry x="100" y="115" width="100" height="30" as="geometry" />
        </mxCell>
        <mxCell id="1xyslzgkCpMe2rgCqbMj-67" value="Order Database" style="html=1;dashed=0;whiteSpace=wrap;shape=partialRectangle;right=0;" parent="1" vertex="1">
          <mxGeometry x="-640" y="527.5" width="100" height="30" as="geometry" />
        </mxCell>
        <mxCell id="1xyslzgkCpMe2rgCqbMj-68" value="Payment Transaction Records" style="html=1;dashed=0;whiteSpace=wrap;shape=partialRectangle;right=0;" parent="1" vertex="1">
          <mxGeometry x="-330" y="200" width="100" height="50" as="geometry" />
        </mxCell>
        <mxCell id="1xyslzgkCpMe2rgCqbMj-69" value="Product Database" style="html=1;dashed=0;whiteSpace=wrap;shape=partialRectangle;right=0;" parent="1" vertex="1">
          <mxGeometry x="-800" y="527.5" width="100" height="30" as="geometry" />
        </mxCell>
        <mxCell id="1xyslzgkCpMe2rgCqbMj-217" style="edgeStyle=orthogonalEdgeStyle;rounded=0;orthogonalLoop=1;jettySize=auto;html=1;exitX=0;exitY=1;exitDx=0;exitDy=0;" parent="1" source="1xyslzgkCpMe2rgCqbMj-104" target="1xyslzgkCpMe2rgCqbMj-207" edge="1">
          <mxGeometry relative="1" as="geometry" />
        </mxCell>
        <mxCell id="1xyslzgkCpMe2rgCqbMj-104" value="Customer Support" style="rounded=1;whiteSpace=wrap;html=1;" parent="1" vertex="1">
          <mxGeometry x="-825" y="70" width="120" height="60" as="geometry" />
        </mxCell>
        <mxCell id="1xyslzgkCpMe2rgCqbMj-149" style="edgeStyle=orthogonalEdgeStyle;rounded=0;orthogonalLoop=1;jettySize=auto;html=1;exitX=0.5;exitY=1;exitDx=0;exitDy=0;entryX=0.383;entryY=-0.017;entryDx=0;entryDy=0;entryPerimeter=0;" parent="1" source="1xyslzgkCpMe2rgCqbMj-204" target="1xyslzgkCpMe2rgCqbMj-12" edge="1">
          <mxGeometry relative="1" as="geometry" />
        </mxCell>
        <mxCell id="1xyslzgkCpMe2rgCqbMj-150" style="edgeStyle=orthogonalEdgeStyle;rounded=0;orthogonalLoop=1;jettySize=auto;html=1;exitX=1;exitY=0.5;exitDx=0;exitDy=0;entryX=0.011;entryY=0.274;entryDx=0;entryDy=0;entryPerimeter=0;" parent="1" source="1xyslzgkCpMe2rgCqbMj-167" target="1xyslzgkCpMe2rgCqbMj-54" edge="1">
          <mxGeometry relative="1" as="geometry" />
        </mxCell>
        <mxCell id="1xyslzgkCpMe2rgCqbMj-153" style="edgeStyle=orthogonalEdgeStyle;rounded=0;orthogonalLoop=1;jettySize=auto;html=1;exitX=0.5;exitY=1;exitDx=0;exitDy=0;entryX=0.263;entryY=0.032;entryDx=0;entryDy=0;entryPerimeter=0;" parent="1" source="1xyslzgkCpMe2rgCqbMj-185" target="1xyslzgkCpMe2rgCqbMj-57" edge="1">
          <mxGeometry relative="1" as="geometry" />
        </mxCell>
        <mxCell id="1xyslzgkCpMe2rgCqbMj-154" style="edgeStyle=orthogonalEdgeStyle;rounded=0;orthogonalLoop=1;jettySize=auto;html=1;exitX=1;exitY=1;exitDx=0;exitDy=0;entryX=0;entryY=0.737;entryDx=0;entryDy=0;entryPerimeter=0;" parent="1" source="1xyslzgkCpMe2rgCqbMj-180" target="1xyslzgkCpMe2rgCqbMj-52" edge="1">
          <mxGeometry relative="1" as="geometry" />
        </mxCell>
        <mxCell id="1xyslzgkCpMe2rgCqbMj-160" style="edgeStyle=orthogonalEdgeStyle;rounded=0;orthogonalLoop=1;jettySize=auto;html=1;exitX=0.5;exitY=1;exitDx=0;exitDy=0;entryX=0.36;entryY=-0.133;entryDx=0;entryDy=0;entryPerimeter=0;" parent="1" source="1xyslzgkCpMe2rgCqbMj-227" target="1xyslzgkCpMe2rgCqbMj-69" edge="1">
          <mxGeometry relative="1" as="geometry" />
        </mxCell>
        <mxCell id="1xyslzgkCpMe2rgCqbMj-166" style="edgeStyle=orthogonalEdgeStyle;rounded=0;orthogonalLoop=1;jettySize=auto;html=1;exitX=0.75;exitY=0;exitDx=0;exitDy=0;entryX=0.408;entryY=1.05;entryDx=0;entryDy=0;entryPerimeter=0;" parent="1" source="1xyslzgkCpMe2rgCqbMj-198" target="1xyslzgkCpMe2rgCqbMj-9" edge="1">
          <mxGeometry relative="1" as="geometry" />
        </mxCell>
        <mxCell id="1xyslzgkCpMe2rgCqbMj-171" value="" style="edgeStyle=orthogonalEdgeStyle;rounded=0;orthogonalLoop=1;jettySize=auto;html=1;exitX=1;exitY=0.5;exitDx=0;exitDy=0;entryX=0.011;entryY=0.274;entryDx=0;entryDy=0;entryPerimeter=0;" parent="1" source="1xyslzgkCpMe2rgCqbMj-9" target="1xyslzgkCpMe2rgCqbMj-167" edge="1">
          <mxGeometry relative="1" as="geometry">
            <mxPoint x="-640" y="-220" as="sourcePoint" />
            <mxPoint x="-359" y="-259" as="targetPoint" />
          </mxGeometry>
        </mxCell>
        <mxCell id="1xyslzgkCpMe2rgCqbMj-167" value="&lt;font style=&quot;font-size: 10px;&quot;&gt;Initiates Registration&lt;/font&gt;" style="text;html=1;align=center;verticalAlign=middle;resizable=0;points=[];autosize=1;strokeColor=none;fillColor=none;" parent="1" vertex="1">
          <mxGeometry x="-570" y="-280" width="110" height="30" as="geometry" />
        </mxCell>
        <mxCell id="1xyslzgkCpMe2rgCqbMj-174" value="" style="edgeStyle=orthogonalEdgeStyle;rounded=0;orthogonalLoop=1;jettySize=auto;html=1;entryX=0.5;entryY=0;entryDx=0;entryDy=0;exitX=-0.025;exitY=0.4;exitDx=0;exitDy=0;exitPerimeter=0;" parent="1" source="1xyslzgkCpMe2rgCqbMj-9" target="1xyslzgkCpMe2rgCqbMj-172" edge="1">
          <mxGeometry relative="1" as="geometry">
            <mxPoint x="-760" y="-180" as="sourcePoint" />
            <mxPoint x="-810" y="208" as="targetPoint" />
          </mxGeometry>
        </mxCell>
        <mxCell id="1xyslzgkCpMe2rgCqbMj-213" style="edgeStyle=orthogonalEdgeStyle;rounded=0;orthogonalLoop=1;jettySize=auto;html=1;entryX=0;entryY=0;entryDx=0;entryDy=0;" parent="1" source="1xyslzgkCpMe2rgCqbMj-172" target="1xyslzgkCpMe2rgCqbMj-58" edge="1">
          <mxGeometry relative="1" as="geometry" />
        </mxCell>
        <mxCell id="1xyslzgkCpMe2rgCqbMj-172" value="&lt;font style=&quot;font-size: 10px;&quot;&gt;Browses and Selects Products&lt;/font&gt;" style="text;html=1;align=center;verticalAlign=middle;resizable=0;points=[];autosize=1;strokeColor=none;fillColor=none;" parent="1" vertex="1">
          <mxGeometry x="-1030" y="130" width="160" height="30" as="geometry" />
        </mxCell>
        <mxCell id="1xyslzgkCpMe2rgCqbMj-179" value="" style="edgeStyle=orthogonalEdgeStyle;rounded=0;orthogonalLoop=1;jettySize=auto;html=1;exitX=0.75;exitY=1;exitDx=0;exitDy=0;entryX=0;entryY=0.5;entryDx=0;entryDy=0;" parent="1" source="1xyslzgkCpMe2rgCqbMj-9" target="1xyslzgkCpMe2rgCqbMj-176" edge="1">
          <mxGeometry relative="1" as="geometry">
            <mxPoint x="-670" y="-190" as="sourcePoint" />
            <mxPoint x="-295" y="48" as="targetPoint" />
          </mxGeometry>
        </mxCell>
        <mxCell id="1xyslzgkCpMe2rgCqbMj-176" value="&lt;font style=&quot;font-size: 10px;&quot;&gt;Manages Shopping Cart&lt;/font&gt;" style="text;html=1;align=center;verticalAlign=middle;resizable=0;points=[];autosize=1;strokeColor=none;fillColor=none;rotation=0;" parent="1" vertex="1">
          <mxGeometry x="-545" y="60" width="130" height="30" as="geometry" />
        </mxCell>
        <mxCell id="1xyslzgkCpMe2rgCqbMj-184" value="" style="edgeStyle=orthogonalEdgeStyle;rounded=0;orthogonalLoop=1;jettySize=auto;html=1;exitX=1;exitY=1;exitDx=0;exitDy=0;entryX=0;entryY=0.737;entryDx=0;entryDy=0;entryPerimeter=0;" parent="1" source="1xyslzgkCpMe2rgCqbMj-9" target="1xyslzgkCpMe2rgCqbMj-180" edge="1">
          <mxGeometry relative="1" as="geometry">
            <mxPoint x="-640" y="-190" as="sourcePoint" />
            <mxPoint x="-360" y="-10" as="targetPoint" />
          </mxGeometry>
        </mxCell>
        <mxCell id="1xyslzgkCpMe2rgCqbMj-180" value="&lt;font style=&quot;font-size: 10px;&quot;&gt;Manages User Account&lt;/font&gt;" style="text;html=1;align=center;verticalAlign=middle;resizable=0;points=[];autosize=1;strokeColor=none;fillColor=none;" parent="1" vertex="1">
          <mxGeometry x="-615" y="-25" width="130" height="30" as="geometry" />
        </mxCell>
        <mxCell id="1xyslzgkCpMe2rgCqbMj-186" value="" style="edgeStyle=orthogonalEdgeStyle;rounded=0;orthogonalLoop=1;jettySize=auto;html=1;exitX=0.5;exitY=1;exitDx=0;exitDy=0;" parent="1" target="1xyslzgkCpMe2rgCqbMj-185" edge="1">
          <mxGeometry relative="1" as="geometry">
            <mxPoint x="-690" y="-190.96" as="sourcePoint" />
            <mxPoint x="-657.9200000000001" y="177.50000000000003" as="targetPoint" />
            <Array as="points">
              <mxPoint x="-690" y="-11" />
              <mxPoint x="-680" y="-11" />
              <mxPoint x="-680" y="170" />
            </Array>
          </mxGeometry>
        </mxCell>
        <mxCell id="1xyslzgkCpMe2rgCqbMj-185" value="&lt;font style=&quot;font-size: 10px;&quot;&gt;Initiates Checkout and Payment&lt;/font&gt;" style="text;html=1;align=center;verticalAlign=middle;resizable=0;points=[];autosize=1;strokeColor=none;fillColor=none;" parent="1" vertex="1">
          <mxGeometry x="-680" y="190" width="160" height="30" as="geometry" />
        </mxCell>
        <mxCell id="1xyslzgkCpMe2rgCqbMj-188" value="" style="edgeStyle=orthogonalEdgeStyle;rounded=0;orthogonalLoop=1;jettySize=auto;html=1;exitX=0.25;exitY=1;exitDx=0;exitDy=0;" parent="1" source="1xyslzgkCpMe2rgCqbMj-9" target="1xyslzgkCpMe2rgCqbMj-187" edge="1">
          <mxGeometry relative="1" as="geometry">
            <mxPoint x="-730" y="-190" as="sourcePoint" />
            <mxPoint x="-765" y="70" as="targetPoint" />
            <Array as="points">
              <mxPoint x="-750" y="-190" />
              <mxPoint x="-750" y="-55" />
              <mxPoint x="-765" y="-55" />
            </Array>
          </mxGeometry>
        </mxCell>
        <mxCell id="1xyslzgkCpMe2rgCqbMj-187" value="&lt;font style=&quot;font-size: 10px;&quot;&gt;Requests Support&lt;/font&gt;" style="text;html=1;align=center;verticalAlign=middle;resizable=0;points=[];autosize=1;strokeColor=none;fillColor=none;" parent="1" vertex="1">
          <mxGeometry x="-930" y="-40" width="100" height="30" as="geometry" />
        </mxCell>
        <mxCell id="1xyslzgkCpMe2rgCqbMj-190" value="" style="edgeStyle=orthogonalEdgeStyle;rounded=0;orthogonalLoop=1;jettySize=auto;html=1;entryX=0;entryY=0.5;entryDx=0;entryDy=0;" parent="1" target="1xyslzgkCpMe2rgCqbMj-189" edge="1">
          <mxGeometry relative="1" as="geometry">
            <mxPoint x="-990" y="310" as="sourcePoint" />
            <mxPoint x="-857" y="255" as="targetPoint" />
          </mxGeometry>
        </mxCell>
        <mxCell id="1xyslzgkCpMe2rgCqbMj-189" value="&lt;font style=&quot;font-size: 10px;&quot;&gt;Provides Product Info&lt;/font&gt;" style="text;html=1;align=center;verticalAlign=middle;resizable=0;points=[];autosize=1;strokeColor=none;fillColor=none;" parent="1" vertex="1">
          <mxGeometry x="-1030" y="250" width="120" height="30" as="geometry" />
        </mxCell>
        <mxCell id="1xyslzgkCpMe2rgCqbMj-192" value="" style="edgeStyle=orthogonalEdgeStyle;rounded=0;orthogonalLoop=1;jettySize=auto;html=1;exitX=0.5;exitY=1;exitDx=0;exitDy=0;" parent="1" source="1xyslzgkCpMe2rgCqbMj-11" target="1xyslzgkCpMe2rgCqbMj-191" edge="1">
          <mxGeometry relative="1" as="geometry">
            <mxPoint x="-1000" y="375" as="sourcePoint" />
            <mxPoint x="-1022" y="470" as="targetPoint" />
          </mxGeometry>
        </mxCell>
        <mxCell id="1xyslzgkCpMe2rgCqbMj-191" value="&lt;font style=&quot;font-size: 10px;&quot;&gt;Updates Inventory&lt;/font&gt;" style="text;html=1;align=center;verticalAlign=middle;resizable=0;points=[];autosize=1;strokeColor=none;fillColor=none;" parent="1" vertex="1">
          <mxGeometry x="-1050" y="405" width="100" height="30" as="geometry" />
        </mxCell>
        <mxCell id="1xyslzgkCpMe2rgCqbMj-197" value="" style="edgeStyle=orthogonalEdgeStyle;rounded=0;orthogonalLoop=1;jettySize=auto;html=1;exitX=0.5;exitY=0;exitDx=0;exitDy=0;entryX=1;entryY=0.5;entryDx=0;entryDy=0;" parent="1" source="1xyslzgkCpMe2rgCqbMj-8" target="1xyslzgkCpMe2rgCqbMj-196" edge="1">
          <mxGeometry relative="1" as="geometry">
            <mxPoint x="-330" y="450" as="sourcePoint" />
            <mxPoint x="-565" y="358" as="targetPoint" />
          </mxGeometry>
        </mxCell>
        <mxCell id="1xyslzgkCpMe2rgCqbMj-196" value="&lt;font style=&quot;font-size: 10px;&quot;&gt;Processes Payment&lt;/font&gt;" style="text;html=1;align=center;verticalAlign=middle;resizable=0;points=[];autosize=1;strokeColor=none;fillColor=none;" parent="1" vertex="1">
          <mxGeometry x="-490" y="390" width="110" height="30" as="geometry" />
        </mxCell>
        <mxCell id="1xyslzgkCpMe2rgCqbMj-199" value="" style="edgeStyle=orthogonalEdgeStyle;rounded=0;orthogonalLoop=1;jettySize=auto;html=1;exitX=0.75;exitY=0;exitDx=0;exitDy=0;entryX=0.408;entryY=1.05;entryDx=0;entryDy=0;entryPerimeter=0;" parent="1" source="1xyslzgkCpMe2rgCqbMj-104" target="1xyslzgkCpMe2rgCqbMj-198" edge="1">
          <mxGeometry relative="1" as="geometry">
            <mxPoint x="-735" y="70" as="sourcePoint" />
            <mxPoint x="-711" y="-187" as="targetPoint" />
          </mxGeometry>
        </mxCell>
        <mxCell id="1xyslzgkCpMe2rgCqbMj-198" value="&lt;font style=&quot;font-size: 10px;&quot;&gt;Assists with Registration&lt;/font&gt;" style="text;html=1;align=center;verticalAlign=middle;resizable=0;points=[];autosize=1;strokeColor=none;fillColor=none;" parent="1" vertex="1">
          <mxGeometry x="-810" y="-15" width="130" height="30" as="geometry" />
        </mxCell>
        <mxCell id="1xyslzgkCpMe2rgCqbMj-201" value="Text" style="text;html=1;align=center;verticalAlign=middle;resizable=0;points=[];autosize=1;strokeColor=none;fillColor=none;" parent="1" vertex="1">
          <mxGeometry x="-1095" y="-202" width="50" height="30" as="geometry" />
        </mxCell>
        <mxCell id="1xyslzgkCpMe2rgCqbMj-205" value="" style="edgeStyle=orthogonalEdgeStyle;rounded=0;orthogonalLoop=1;jettySize=auto;html=1;exitX=0.5;exitY=1;exitDx=0;exitDy=0;entryX=0.383;entryY=-0.017;entryDx=0;entryDy=0;entryPerimeter=0;" parent="1" source="1xyslzgkCpMe2rgCqbMj-55" target="1xyslzgkCpMe2rgCqbMj-204" edge="1">
          <mxGeometry relative="1" as="geometry">
            <mxPoint x="-822" y="545" as="sourcePoint" />
            <mxPoint x="-717" y="619" as="targetPoint" />
          </mxGeometry>
        </mxCell>
        <mxCell id="1xyslzgkCpMe2rgCqbMj-204" value="&lt;font style=&quot;font-size: 10px;&quot;&gt;Handles Order Fulfillment&lt;/font&gt;" style="text;html=1;align=center;verticalAlign=middle;resizable=0;points=[];autosize=1;strokeColor=none;fillColor=none;" parent="1" vertex="1">
          <mxGeometry x="-800" y="850" width="140" height="30" as="geometry" />
        </mxCell>
        <mxCell id="1xyslzgkCpMe2rgCqbMj-215" style="edgeStyle=orthogonalEdgeStyle;rounded=0;orthogonalLoop=1;jettySize=auto;html=1;entryX=0.5;entryY=0;entryDx=0;entryDy=0;" parent="1" source="1xyslzgkCpMe2rgCqbMj-207" target="1xyslzgkCpMe2rgCqbMj-58" edge="1">
          <mxGeometry relative="1" as="geometry" />
        </mxCell>
        <mxCell id="1xyslzgkCpMe2rgCqbMj-207" value="&lt;font style=&quot;font-size: 10px;&quot;&gt;Assists with Product Info&lt;/font&gt;" style="text;html=1;align=center;verticalAlign=middle;resizable=0;points=[];autosize=1;strokeColor=none;fillColor=none;" parent="1" vertex="1">
          <mxGeometry x="-910" y="160" width="130" height="30" as="geometry" />
        </mxCell>
        <mxCell id="1xyslzgkCpMe2rgCqbMj-221" style="edgeStyle=orthogonalEdgeStyle;rounded=0;orthogonalLoop=1;jettySize=auto;html=1;entryX=0;entryY=0.5;entryDx=0;entryDy=0;" parent="1" source="1xyslzgkCpMe2rgCqbMj-218" target="1xyslzgkCpMe2rgCqbMj-57" edge="1">
          <mxGeometry relative="1" as="geometry" />
        </mxCell>
        <mxCell id="1xyslzgkCpMe2rgCqbMj-218" value="&lt;font style=&quot;font-size: 10px;&quot;&gt;Assists with Payment&lt;/font&gt;" style="text;html=1;align=center;verticalAlign=middle;resizable=0;points=[];autosize=1;strokeColor=none;fillColor=none;" parent="1" vertex="1">
          <mxGeometry x="-825" y="220" width="120" height="30" as="geometry" />
        </mxCell>
        <mxCell id="1xyslzgkCpMe2rgCqbMj-222" style="edgeStyle=orthogonalEdgeStyle;rounded=0;orthogonalLoop=1;jettySize=auto;html=1;entryX=0.533;entryY=0.067;entryDx=0;entryDy=0;entryPerimeter=0;" parent="1" source="1xyslzgkCpMe2rgCqbMj-104" target="1xyslzgkCpMe2rgCqbMj-218" edge="1">
          <mxGeometry relative="1" as="geometry" />
        </mxCell>
        <mxCell id="1xyslzgkCpMe2rgCqbMj-225" style="edgeStyle=orthogonalEdgeStyle;rounded=0;orthogonalLoop=1;jettySize=auto;html=1;entryX=0.5;entryY=0;entryDx=0;entryDy=0;" parent="1" source="1xyslzgkCpMe2rgCqbMj-223" target="1xyslzgkCpMe2rgCqbMj-62" edge="1">
          <mxGeometry relative="1" as="geometry" />
        </mxCell>
        <mxCell id="1xyslzgkCpMe2rgCqbMj-223" value="&lt;font style=&quot;font-size: 10px;&quot;&gt;Stores Registration Data&lt;/font&gt;" style="text;html=1;align=center;verticalAlign=middle;resizable=0;points=[];autosize=1;strokeColor=none;fillColor=none;" parent="1" vertex="1">
          <mxGeometry x="-290" y="-180" width="130" height="30" as="geometry" />
        </mxCell>
        <mxCell id="1xyslzgkCpMe2rgCqbMj-228" value="" style="edgeStyle=orthogonalEdgeStyle;rounded=0;orthogonalLoop=1;jettySize=auto;html=1;exitX=0.5;exitY=1;exitDx=0;exitDy=0;entryX=0.36;entryY=-0.133;entryDx=0;entryDy=0;entryPerimeter=0;" parent="1" source="1xyslzgkCpMe2rgCqbMj-58" target="1xyslzgkCpMe2rgCqbMj-227" edge="1">
          <mxGeometry relative="1" as="geometry">
            <mxPoint x="-822" y="355" as="sourcePoint" />
            <mxPoint x="-824" y="391" as="targetPoint" />
          </mxGeometry>
        </mxCell>
        <mxCell id="1xyslzgkCpMe2rgCqbMj-227" value="&lt;font style=&quot;font-size: 10px;&quot;&gt;Retrieves Product Info&lt;/font&gt;" style="text;html=1;align=center;verticalAlign=middle;resizable=0;points=[];autosize=1;strokeColor=none;fillColor=none;" parent="1" vertex="1">
          <mxGeometry x="-880" y="410" width="120" height="30" as="geometry" />
        </mxCell>
        <mxCell id="1xyslzgkCpMe2rgCqbMj-230" value="" style="edgeStyle=orthogonalEdgeStyle;rounded=0;orthogonalLoop=1;jettySize=auto;html=1;exitX=1;exitY=0.5;exitDx=0;exitDy=0;entryX=0;entryY=0.5;entryDx=0;entryDy=0;" parent="1" source="1xyslzgkCpMe2rgCqbMj-53" target="1xyslzgkCpMe2rgCqbMj-229" edge="1">
          <mxGeometry relative="1" as="geometry">
            <mxPoint x="-115" y="78" as="sourcePoint" />
            <mxPoint x="30" y="110" as="targetPoint" />
          </mxGeometry>
        </mxCell>
        <mxCell id="1xyslzgkCpMe2rgCqbMj-229" value="&lt;font style=&quot;font-size: 10px;&quot;&gt;Manages Cart Items&lt;/font&gt;" style="text;html=1;align=center;verticalAlign=middle;resizable=0;points=[];autosize=1;strokeColor=none;fillColor=none;" parent="1" vertex="1">
          <mxGeometry x="-70" y="85" width="110" height="30" as="geometry" />
        </mxCell>
        <mxCell id="1xyslzgkCpMe2rgCqbMj-232" value="" style="edgeStyle=orthogonalEdgeStyle;rounded=0;orthogonalLoop=1;jettySize=auto;html=1;exitX=0.5;exitY=1;exitDx=0;exitDy=0;" parent="1" source="1xyslzgkCpMe2rgCqbMj-57" target="1xyslzgkCpMe2rgCqbMj-231" edge="1">
          <mxGeometry relative="1" as="geometry">
            <mxPoint x="-612" y="405" as="sourcePoint" />
            <mxPoint x="-580" y="495" as="targetPoint" />
          </mxGeometry>
        </mxCell>
        <mxCell id="1xyslzgkCpMe2rgCqbMj-231" value="&lt;span style=&quot;font-size: 10px;&quot;&gt;Stores Order Data&lt;/span&gt;" style="text;html=1;align=center;verticalAlign=middle;resizable=0;points=[];autosize=1;strokeColor=none;fillColor=none;" parent="1" vertex="1">
          <mxGeometry x="-670" y="460" width="100" height="30" as="geometry" />
        </mxCell>
        <mxCell id="1xyslzgkCpMe2rgCqbMj-235" value="" style="edgeStyle=orthogonalEdgeStyle;rounded=0;orthogonalLoop=1;jettySize=auto;html=1;exitX=0;exitY=0;exitDx=0;exitDy=0;entryX=0.35;entryY=1.233;entryDx=0;entryDy=0;entryPerimeter=0;" parent="1" source="1xyslzgkCpMe2rgCqbMj-55" target="1xyslzgkCpMe2rgCqbMj-234" edge="1">
          <mxGeometry relative="1" as="geometry">
            <mxPoint x="-916" y="744" as="sourcePoint" />
            <mxPoint x="-835" y="564" as="targetPoint" />
          </mxGeometry>
        </mxCell>
        <mxCell id="1xyslzgkCpMe2rgCqbMj-246" style="edgeStyle=orthogonalEdgeStyle;rounded=0;orthogonalLoop=1;jettySize=auto;html=1;entryX=0.5;entryY=1;entryDx=0;entryDy=0;" parent="1" source="1xyslzgkCpMe2rgCqbMj-234" target="1xyslzgkCpMe2rgCqbMj-69" edge="1">
          <mxGeometry relative="1" as="geometry" />
        </mxCell>
        <mxCell id="1xyslzgkCpMe2rgCqbMj-234" value="&lt;font style=&quot;font-size: 10px;&quot;&gt;Checks Product Availability&lt;/font&gt;" style="text;html=1;align=center;verticalAlign=middle;resizable=0;points=[];autosize=1;strokeColor=none;fillColor=none;" parent="1" vertex="1">
          <mxGeometry x="-940" y="630" width="140" height="30" as="geometry" />
        </mxCell>
        <mxCell id="1xyslzgkCpMe2rgCqbMj-243" style="edgeStyle=orthogonalEdgeStyle;rounded=0;orthogonalLoop=1;jettySize=auto;html=1;entryX=0.5;entryY=1;entryDx=0;entryDy=0;" parent="1" source="1xyslzgkCpMe2rgCqbMj-240" target="1xyslzgkCpMe2rgCqbMj-67" edge="1">
          <mxGeometry relative="1" as="geometry" />
        </mxCell>
        <mxCell id="1xyslzgkCpMe2rgCqbMj-240" value="&lt;font style=&quot;font-size: 10px;&quot;&gt;Stores and Retrieves Order Info&lt;/font&gt;" style="text;html=1;align=center;verticalAlign=middle;resizable=0;points=[];autosize=1;strokeColor=none;fillColor=none;" parent="1" vertex="1">
          <mxGeometry x="-760" y="660" width="160" height="30" as="geometry" />
        </mxCell>
        <mxCell id="1xyslzgkCpMe2rgCqbMj-242" style="edgeStyle=orthogonalEdgeStyle;rounded=0;orthogonalLoop=1;jettySize=auto;html=1;exitX=1;exitY=0;exitDx=0;exitDy=0;entryX=0.506;entryY=0.967;entryDx=0;entryDy=0;entryPerimeter=0;" parent="1" source="1xyslzgkCpMe2rgCqbMj-55" target="1xyslzgkCpMe2rgCqbMj-240" edge="1">
          <mxGeometry relative="1" as="geometry" />
        </mxCell>
        <mxCell id="1xyslzgkCpMe2rgCqbMj-244" value="&lt;font style=&quot;font-size: 10px;&quot;&gt;Manages Inventory&lt;/font&gt;" style="text;html=1;align=center;verticalAlign=middle;resizable=0;points=[];autosize=1;strokeColor=none;fillColor=none;" parent="1" vertex="1">
          <mxGeometry x="-1070" y="600" width="110" height="30" as="geometry" />
        </mxCell>
        <mxCell id="1xyslzgkCpMe2rgCqbMj-247" style="edgeStyle=orthogonalEdgeStyle;rounded=0;orthogonalLoop=1;jettySize=auto;html=1;exitX=1;exitY=1;exitDx=0;exitDy=0;entryX=0.241;entryY=0.983;entryDx=0;entryDy=0;entryPerimeter=0;" parent="1" source="1xyslzgkCpMe2rgCqbMj-56" target="1xyslzgkCpMe2rgCqbMj-244" edge="1">
          <mxGeometry relative="1" as="geometry" />
        </mxCell>
        <mxCell id="1xyslzgkCpMe2rgCqbMj-248" value="&lt;font style=&quot;font-size: 10px;&quot;&gt;Manages User Accounts&lt;/font&gt;" style="text;html=1;align=center;verticalAlign=middle;resizable=0;points=[];autosize=1;strokeColor=none;fillColor=none;" parent="1" vertex="1">
          <mxGeometry x="-180" y="-25" width="130" height="30" as="geometry" />
        </mxCell>
        <mxCell id="1xyslzgkCpMe2rgCqbMj-250" style="edgeStyle=orthogonalEdgeStyle;rounded=0;orthogonalLoop=1;jettySize=auto;html=1;entryX=0.59;entryY=1.233;entryDx=0;entryDy=0;entryPerimeter=0;" parent="1" source="1xyslzgkCpMe2rgCqbMj-248" target="1xyslzgkCpMe2rgCqbMj-62" edge="1">
          <mxGeometry relative="1" as="geometry" />
        </mxCell>
        <mxCell id="kaiCY0eui-3xIyCu-fIG-1" value="&lt;font style=&quot;font-size: 10px;&quot;&gt;Records Payment Transactions&lt;/font&gt;" style="text;html=1;align=center;verticalAlign=middle;resizable=0;points=[];autosize=1;strokeColor=none;fillColor=none;" vertex="1" parent="1">
          <mxGeometry x="-502.5" y="285" width="160" height="30" as="geometry" />
        </mxCell>
        <mxCell id="kaiCY0eui-3xIyCu-fIG-5" style="edgeStyle=orthogonalEdgeStyle;rounded=0;orthogonalLoop=1;jettySize=auto;html=1;entryX=0.39;entryY=1;entryDx=0;entryDy=0;entryPerimeter=0;" edge="1" parent="1" source="kaiCY0eui-3xIyCu-fIG-1" target="1xyslzgkCpMe2rgCqbMj-68">
          <mxGeometry relative="1" as="geometry" />
        </mxCell>
        <mxCell id="kaiCY0eui-3xIyCu-fIG-6" style="edgeStyle=orthogonalEdgeStyle;rounded=0;orthogonalLoop=1;jettySize=auto;html=1;exitX=1;exitY=0;exitDx=0;exitDy=0;entryX=-0.047;entryY=0.5;entryDx=0;entryDy=0;entryPerimeter=0;" edge="1" parent="1" source="1xyslzgkCpMe2rgCqbMj-57" target="kaiCY0eui-3xIyCu-fIG-1">
          <mxGeometry relative="1" as="geometry" />
        </mxCell>
      </root>
    </mxGraphModel>
  </diagram>
</mxfile>
